<?xml version="1.0" encoding="UTF-8"?>
<!-- Generator: visioncortex VTracer 0.6.12 -->
<svg version="1.1" xmlns="http://www.w3.org/2000/svg" width="1024" height="1024">
<path d="M0 0 C1.705 12.328 3.361 24.663 5 37 C5.088 37.665 5.177 38.329 5.268 39.014 C6.5 48.29 7.723 57.567 8.933 66.846 C9.456 70.859 9.982 74.873 10.513 78.886 C11.023 82.73 11.525 86.576 12.022 90.423 C12.209 91.862 12.399 93.302 12.591 94.74 C12.857 96.728 13.112 98.718 13.367 100.707 C13.44 101.269 13.44 101.269 13.812 104.11 C13.983 106.74 13.831 108.526 13 111 C9.082 108.814 5.166 106.626 1.25 104.438 C0.158 103.828 -0.934 103.219 -2.059 102.592 C-8.645 98.909 -15.175 95.152 -21.646 91.27 C-24 90 -24 90 -26 90 C-26.411 90.753 -26.823 91.506 -27.247 92.281 C-34.944 106.349 -42.713 120.356 -50.848 134.178 C-54.993 141.234 -59.021 148.349 -63 155.5 C-67.553 163.682 -72.192 171.803 -76.938 179.875 C-82.003 188.494 -86.918 197.187 -91.75 205.938 C-96.099 213.811 -100.491 221.644 -105.09 229.374 C-109.072 236.082 -112.945 242.851 -116.812 249.625 C-117.153 250.221 -117.493 250.816 -117.843 251.43 C-124.598 263.267 -131.309 275.127 -138 287 C-141.863 285.712 -142.119 284.481 -144.012 280.945 C-144.596 279.869 -145.181 278.794 -145.783 277.685 C-146.093 277.106 -146.402 276.527 -146.721 275.931 C-148.379 272.833 -150.069 269.753 -151.758 266.672 C-151.932 266.353 -151.932 266.353 -152.816 264.739 C-156.414 258.193 -160.223 251.782 -164.062 245.375 C-169.826 235.736 -175.403 226.013 -180.856 216.196 C-185.337 208.143 -189.95 200.175 -194.612 192.225 C-199.106 184.555 -203.535 176.848 -207.938 169.125 C-213.101 160.069 -218.284 151.025 -223.5 142 C-229.03 132.43 -234.526 122.842 -240.003 113.242 C-244.955 104.563 -249.937 95.901 -254.938 87.25 C-259.129 79.993 -263.315 72.734 -267.438 65.438 C-267.809 64.782 -268.181 64.127 -268.564 63.452 C-271 59.12 -271 59.12 -271 58 C-254.971 57.696 -238.943 57.467 -222.912 57.326 C-215.468 57.259 -208.025 57.168 -200.582 57.019 C-194.092 56.889 -187.604 56.806 -181.113 56.777 C-177.677 56.76 -174.245 56.72 -170.81 56.626 C-149.884 56.111 -149.884 56.111 -145.098 59.246 C-141.804 62.656 -140.457 66.519 -139 71 C-137.938 72.936 -136.842 74.854 -135.691 76.738 C-134.086 79.587 -132.49 82.441 -130.896 85.297 C-128.353 89.845 -125.799 94.374 -123.094 98.828 C-122.878 99.19 -122.878 99.19 -121.787 101.018 C-120.995 102.34 -120.189 103.652 -119.364 104.952 C-117.62 107.899 -116.852 109.403 -117.691 112.79 C-119.103 116.254 -120.765 119.395 -122.625 122.641 C-122.973 123.249 -123.32 123.857 -123.678 124.484 C-124.409 125.759 -125.142 127.033 -125.877 128.306 C-127.003 130.255 -128.119 132.209 -129.234 134.164 C-134.715 143.715 -134.715 143.715 -137 146 C-143.588 135.709 -149.503 125.056 -155.438 114.379 C-159.246 107.56 -163.125 100.781 -167 94 C-181.19 94 -195.38 94 -210 94 C-207.979 97.444 -205.957 100.889 -203.875 104.438 C-198.738 113.219 -193.7 122.049 -188.75 130.938 C-184.944 137.771 -181.118 144.586 -177.125 151.312 C-172.76 158.667 -168.493 166.075 -164.25 173.5 C-163.911 174.094 -163.571 174.687 -163.222 175.299 C-159.438 181.921 -155.678 188.557 -151.965 195.219 C-151.328 196.36 -150.692 197.502 -150.036 198.678 C-148.831 200.844 -147.628 203.012 -146.429 205.182 C-145.889 206.153 -145.349 207.124 -144.793 208.125 C-144.558 208.549 -144.558 208.549 -143.372 210.695 C-142.045 212.925 -140.597 214.958 -139 217 C-138.809 216.654 -138.809 216.654 -137.845 214.902 C-130.449 201.484 -122.968 188.133 -115.203 174.924 C-111.043 167.832 -106.997 160.684 -103 153.5 C-98.424 145.278 -93.764 137.114 -89 129 C-83.57 119.751 -78.289 110.428 -73.07 101.059 C-67.82 91.643 -62.437 82.309 -57 73 C-59.86 70.721 -62.693 69.065 -66 67.512 C-66.965 67.055 -67.93 66.599 -68.924 66.128 C-69.939 65.653 -70.954 65.177 -72 64.688 C-74.075 63.707 -76.149 62.725 -78.223 61.742 C-79.218 61.271 -80.213 60.801 -81.239 60.315 C-86.198 57.953 -91.106 55.494 -96 53 C-93.577 50.283 -90.999 48.764 -87.793 47.066 C-86.743 46.506 -85.693 45.946 -84.612 45.369 C-83.482 44.773 -82.352 44.177 -81.188 43.562 C-80.005 42.933 -78.822 42.303 -77.64 41.672 C-75.237 40.389 -72.832 39.108 -70.427 37.828 C-65.624 35.266 -60.84 32.671 -56.062 30.062 C-55.189 29.586 -54.315 29.109 -53.414 28.618 C-46.571 24.878 -39.757 21.088 -32.945 17.292 C-24.621 12.654 -16.293 8.028 -7.875 3.562 C-7.526 3.377 -7.526 3.377 -5.759 2.437 C-1.128 0 -1.128 0 0 0 Z " fill="#000000" transform="translate(577,272)"/>
<path d="M0 0 C36.96 0 73.92 0 112 0 C110.602 3.495 109.283 6.45 107.453 9.676 C106.945 10.573 106.438 11.471 105.914 12.396 C105.365 13.358 104.816 14.321 104.25 15.312 C103.674 16.327 103.099 17.341 102.506 18.385 C97.84 26.582 93.084 34.724 88.312 42.859 C84.036 50.17 79.871 57.538 75.75 64.938 C71.545 72.485 67.291 79.993 62.884 87.424 C53.374 103.47 44.166 119.694 34.927 135.897 C29.703 145.057 24.408 154.175 19.078 163.274 C15.157 169.982 11.309 176.728 7.5 183.5 C2.92 191.643 -1.728 199.743 -6.438 207.812 C-6.721 208.298 -6.721 208.298 -8.156 210.758 C-11.729 216.864 -15.347 222.942 -19 229 C-21.84 226.339 -23.869 223.827 -25.742 220.422 C-26.244 219.521 -26.745 218.62 -27.261 217.692 C-27.794 216.721 -28.326 215.75 -28.875 214.75 C-30.039 212.658 -31.204 210.567 -32.371 208.477 C-32.97 207.402 -33.57 206.327 -34.187 205.22 C-37.041 200.151 -39.989 195.139 -42.938 190.125 C-48.364 180.871 -53.651 171.547 -58.873 162.176 C-63.167 154.472 -67.518 146.804 -71.918 139.161 C-72.82 137.591 -73.709 136.014 -74.583 134.428 C-76 132 -76 132 -77.878 129.363 C-79.747 126.555 -81.094 124.253 -82 121 C-80.995 116.56 -78.764 113.189 -76.25 109.438 C-75.952 108.956 -75.952 108.956 -74.441 106.518 C-73.249 104.599 -72.036 102.693 -70.803 100.8 C-68.503 97.227 -66.373 93.565 -64.253 89.883 C-63 88 -63 88 -61 87 C-60.619 87.662 -60.238 88.324 -59.845 89.006 C-58.022 92.171 -56.199 95.336 -54.375 98.5 C-54.039 99.084 -53.703 99.667 -53.356 100.268 C-47.952 109.646 -42.496 118.992 -37.018 128.326 C-32.647 135.808 -28.445 143.374 -24.374 151.023 C-23.957 151.798 -23.539 152.573 -23.109 153.371 C-22.748 154.051 -22.387 154.731 -22.015 155.431 C-21 157 -21 157 -19 158 C-11.756 145.49 -4.525 132.975 2.562 120.375 C6.948 112.581 11.413 104.839 15.938 97.125 C21.317 87.951 26.548 78.703 31.719 69.411 C37.985 58.178 44.49 47.093 51 36 C35.49 35.67 19.98 35.34 4 35 C3.67 32.762 3.67 32.762 2 21.438 C1.791 20.039 1.582 18.641 1.367 17.201 C1.205 16.081 1.042 14.962 0.875 13.809 C0.707 12.672 0.54 11.536 0.367 10.365 C0 7 0 7 0 0 Z " fill="#000000" transform="translate(606,330)"/>
<path d="M0 0 C1.91 1.598 1.91 1.598 4.91 5.598 C1.61 8.898 -1.69 12.198 -5.09 15.598 C-8.27 14.008 -11.271 12.329 -14.309 10.5 C-20.341 7.444 -28.29 7.602 -34.699 9.281 C-41.306 11.953 -45.213 16.039 -48.09 22.598 C-50.021 30.874 -48.747 38.233 -44.34 45.473 C-38.918 50.594 -33.231 52.732 -25.84 52.785 C-24.948 52.799 -24.056 52.814 -23.137 52.828 C-20.09 52.598 -20.09 52.598 -12.09 50.598 C-12.09 43.668 -12.09 36.738 -12.09 29.598 C-6.81 29.598 -1.53 29.598 3.91 29.598 C4.141 33.767 4.339 37.915 4.459 42.085 C4.51 43.5 4.578 44.915 4.665 46.328 C4.937 50.877 5.001 55.131 3.91 59.598 C0.982 62.72 -2.102 64.162 -6.09 65.598 C-6.967 65.938 -7.844 66.278 -8.748 66.629 C-19.51 70.506 -34.679 70.429 -45.09 65.598 C-54.811 60.862 -62.391 53.954 -66.09 43.598 C-69.224 32.425 -68.469 21.926 -63.09 11.598 C-57.388 2.105 -48.556 -4.159 -37.863 -6.992 C-24.182 -9.015 -11.566 -7.872 0 0 Z " fill="#000000" transform="translate(551.08984375,609.40234375)"/>
<path d="M0 0 C5.94 0 11.88 0 18 0 C18.408 1.2 18.817 2.4 19.238 3.637 C20.763 8.117 22.289 12.598 23.817 17.078 C24.476 19.011 25.134 20.945 25.792 22.879 C26.742 25.67 27.693 28.46 28.645 31.25 C28.935 32.106 29.226 32.961 29.526 33.843 C31.263 38.931 33.088 43.975 35 49 C35.198 48.401 35.396 47.802 35.601 47.184 C37.657 40.971 39.718 34.759 41.781 28.547 C42.551 26.226 43.32 23.905 44.089 21.583 C45.19 18.254 46.296 14.926 47.402 11.598 C47.747 10.553 48.092 9.508 48.447 8.432 C48.607 7.951 48.607 7.951 49.418 5.52 C49.559 5.095 49.559 5.095 50.272 2.943 C51 1 51 1 52 0 C54.863 -0.073 57.701 -0.092 60.562 -0.062 C61.369 -0.058 62.175 -0.053 63.006 -0.049 C65.004 -0.037 67.002 -0.019 69 0 C69.408 1.2 69.817 2.4 70.238 3.637 C71.763 8.117 73.289 12.598 74.817 17.078 C75.476 19.011 76.134 20.945 76.792 22.879 C77.742 25.67 78.693 28.46 79.645 31.25 C79.935 32.106 80.226 32.961 80.526 33.843 C82.263 38.931 84.088 43.975 86 49 C86.198 48.401 86.396 47.802 86.601 47.184 C88.657 40.971 90.718 34.759 92.781 28.547 C93.551 26.226 94.32 23.905 95.089 21.583 C96.19 18.254 97.296 14.926 98.402 11.598 C98.747 10.553 99.092 9.508 99.447 8.432 C99.607 7.951 99.607 7.951 100.418 5.52 C100.7 4.669 100.982 3.819 101.272 2.943 C102 1 102 1 103 0 C105.863 -0.073 108.701 -0.092 111.562 -0.062 C112.369 -0.058 113.175 -0.053 114.006 -0.049 C116.004 -0.037 118.002 -0.019 120 0 C118.591 6.977 116.586 13.567 114.262 20.289 C113.899 21.351 113.536 22.412 113.163 23.506 C112.009 26.88 110.848 30.253 109.688 33.625 C108.919 35.866 108.152 38.107 107.385 40.348 C106.27 43.604 105.155 46.86 104.038 50.116 C101.314 58.063 98.639 66.024 96 74 C89.4 74 82.8 74 76 74 C73.858 67.648 71.722 61.294 69.591 54.939 C68.865 52.776 68.138 50.614 67.409 48.452 C66.362 45.349 65.321 42.243 64.281 39.137 C63.953 38.168 63.625 37.199 63.287 36.201 C62.987 35.3 62.686 34.399 62.377 33.471 C62.11 32.679 61.844 31.886 61.569 31.069 C61 29 61 29 61 26 C60.34 26 59.68 26 59 26 C58.945 26.272 58.945 26.272 58.668 27.647 C57.477 33.303 55.888 38.699 53.996 44.156 C53.713 44.985 53.429 45.813 53.137 46.666 C52.544 48.398 51.948 50.129 51.35 51.859 C50.431 54.519 49.521 57.181 48.611 59.844 C48.032 61.531 47.452 63.219 46.871 64.906 C46.598 65.704 46.325 66.502 46.044 67.324 C44.116 72.884 44.116 72.884 43 74 C41.584 74.087 40.164 74.107 38.746 74.098 C37.892 74.094 37.038 74.091 36.158 74.088 C35.26 74.08 34.363 74.071 33.438 74.062 C32.536 74.058 31.634 74.053 30.705 74.049 C28.47 74.037 26.235 74.021 24 74 C9.338 32.196 9.338 32.196 3.562 15.062 C3.377 14.52 3.377 14.52 2.44 11.772 C2.11 10.786 1.781 9.801 1.441 8.785 C1.16 7.949 0.878 7.112 0.588 6.25 C0 4 0 4 0 0 Z " fill="#000000" transform="translate(207,603)"/>
<path d="M0 0 C5.94 0 11.88 0 18 0 C18 24.42 18 48.84 18 74 C12.06 74 6.12 74 0 74 C0 49.58 0 25.16 0 0 Z " fill="#000000" transform="translate(337,603)"/>
<path d="M0 0 C15 0 15 0 18.555 2.238 C19.32 3.253 20.086 4.267 20.875 5.312 C21.309 5.857 21.743 6.402 22.189 6.963 C23.073 8.08 23.939 9.212 24.784 10.358 C26.592 12.799 28.554 15.106 30.5 17.438 C31.217 18.327 31.933 19.216 32.672 20.133 C35.762 23.939 38.933 27.674 42.107 31.41 C45.093 34.923 48.048 38.458 51 42 C51.33 28.14 51.66 14.28 52 0 C57.94 0 63.88 0 70 0 C70 24.42 70 48.84 70 74 C54 74 54 74 49.188 69.312 C47.776 67.219 46.381 65.114 45 63 C43.23 60.778 41.366 58.642 39.5 56.5 C38.566 55.404 37.633 54.306 36.703 53.207 C36.25 52.672 35.797 52.136 35.33 51.584 C32.601 48.333 29.933 45.033 27.266 41.73 C24.248 38.094 21.112 34.556 18 31 C17.67 45.19 17.34 59.38 17 74 C11.39 74 5.78 74 0 74 C0 49.58 0 25.16 0 0 Z " fill="#000000" transform="translate(372,603)"/>
<path d="M0 0 C6.27 0 12.54 0 19 0 C35.288 34.41 35.288 34.41 43.312 51.625 C43.832 52.735 44.352 53.845 44.887 54.989 C47.801 61.256 50.494 67.559 53 74 C46.73 74 40.46 74 34 74 C28 62.375 28 62.375 28 59 C16.12 59 4.24 59 -8 59 C-8.99 61.31 -8.99 61.31 -14 73 C-15 74 -15 74 -16.766 74.114 C-17.515 74.108 -18.264 74.103 -19.035 74.098 C-19.844 74.094 -20.653 74.091 -21.486 74.088 C-22.336 74.08 -23.187 74.071 -24.062 74.062 C-24.917 74.058 -25.771 74.053 -26.65 74.049 C-28.767 74.037 -30.883 74.019 -33 74 C-31.091 67.881 -28.814 62.09 -26.086 56.293 C-25.715 55.493 -25.343 54.694 -24.961 53.87 C-23.77 51.307 -22.572 48.747 -21.375 46.188 C-20.148 43.55 -18.922 40.912 -17.697 38.274 C-16.895 36.548 -16.094 34.823 -15.291 33.098 C-11.982 25.979 -8.737 18.834 -5.55 11.659 C-3.793 7.712 -1.935 3.871 0 0 Z M9 18 C-2 41.436 -2 41.436 -2 45 C5.59 45 13.18 45 21 45 C17.625 34.875 17.625 34.875 15.957 31.184 C15.606 30.4 15.254 29.617 14.893 28.811 C14.536 28.027 14.18 27.244 13.812 26.438 C13.444 25.62 13.076 24.802 12.697 23.959 C11.802 21.971 10.902 19.985 10 18 C9.67 18 9.34 18 9 18 Z " fill="#000000" transform="translate(594,603)"/>
<path d="M0 0 C2.423 -0.105 4.841 -0.182 7.266 -0.242 C7.608 -0.258 7.608 -0.258 9.338 -0.341 C12.71 -0.404 14.571 -0.337 17.263 1.78 C19.125 4.403 20.532 7.136 22 10 C23.287 12.161 24.612 14.297 25.939 16.434 C27.377 18.753 28.79 21.086 30.199 23.422 C33.144 28.272 36.216 33.036 39.359 37.761 C42 41.786 42 41.786 42 44 C44.763 41.503 46.541 38.717 48.477 35.547 C49.142 34.459 49.808 33.371 50.494 32.25 C50.842 31.677 51.19 31.105 51.548 30.515 C52.631 28.74 53.727 26.973 54.826 25.208 C58.307 19.592 61.69 14.017 64.371 7.961 C65.918 5.103 68.024 2.58 70 0 C75.28 0 80.56 0 86 0 C86 24.42 86 48.84 86 74 C80.39 74 74.78 74 69 74 C68.67 60.47 68.34 46.94 68 33 C59.75 46.687 59.75 46.687 57.171 50.979 C56.491 52.104 55.81 53.228 55.109 54.387 C54.763 54.966 54.416 55.545 54.059 56.141 C48.449 65.384 48.449 65.384 44.911 66.888 C42.249 67.053 40.514 66.945 38 66 C34.737 62.622 32.59 58.71 30.312 54.625 C29.688 53.564 29.063 52.503 28.42 51.41 C27.237 49.395 26.067 47.372 24.915 45.338 C22.342 40.854 19.66 36.433 17 32 C16.67 45.86 16.34 59.72 16 74 C10.72 74 5.44 74 0 74 C-1 73 -1 73 -1.082 70.108 C-1.062 68.814 -1.042 67.519 -1.022 66.185 C-1.012 65.473 -1.003 64.761 -0.993 64.027 C-0.96 61.663 -0.919 59.298 -0.879 56.934 C-0.855 55.298 -0.831 53.663 -0.807 52.028 C-0.744 47.716 -0.675 43.403 -0.605 39.091 C-0.535 34.694 -0.47 30.297 -0.404 25.9 C-0.275 17.267 -0.14 8.633 0 0 Z " fill="#000000" transform="translate(655,603)"/>
<path d="M0 0 C19.14 0 38.28 0 58 0 C58 4.62 58 9.24 58 14 C44.8 14 31.6 14 18 14 C18 18.95 18 23.9 18 29 C29.55 29 41.1 29 53 29 C53 33.62 53 38.24 53 43 C41.45 43 29.9 43 18 43 C18 48.61 18 54.22 18 60 C31.86 60 45.72 60 60 60 C60 64.29 60 68.58 60 73 C59 74 59 74 56.64 74.12 C55.594 74.118 54.548 74.116 53.47 74.114 C52.872 74.113 52.872 74.113 49.841 74.113 C48.572 74.108 47.303 74.103 45.996 74.098 C44.837 74.097 43.678 74.096 42.484 74.095 C38.135 74.089 33.786 74.075 29.438 74.062 C24.58 74.052 24.58 74.052 0 74 C0 49.58 0 25.16 0 0 Z " fill="#000000" transform="translate(758,603)"/>
<path d="M0 0 C0.485 0.01 0.485 0.01 2.938 0.062 C7.983 9.924 12.712 19.82 16.938 30.062 C14.298 30.062 11.658 30.062 8.938 30.062 C8.277 28.413 7.618 26.763 6.938 25.062 C2.317 25.062 -2.303 25.062 -7.062 25.062 C-7.392 25.888 -7.392 25.888 -9.062 30.062 C-11.373 30.062 -13.683 30.062 -16.062 30.062 C-15.434 26.164 -14.247 22.939 -12.594 19.359 C-12.105 18.297 -11.617 17.235 -11.113 16.141 C-10.857 15.591 -10.857 15.591 -9.562 12.812 C-9.051 11.699 -8.539 10.585 -8.012 9.438 C-3.685 0.075 -3.685 0.075 0 0 Z M-1.062 8.062 C-4.062 14.688 -4.062 14.688 -4.062 18.062 C-1.423 18.393 1.217 18.722 3.938 19.062 C3.386 15.113 2.548 11.713 0.938 8.062 C0.277 8.062 -0.382 8.062 -1.062 8.062 Z " fill="#000000" transform="translate(272.0625,708.9375)"/>
<path d="M0 0 C1.98 0 3.96 0 6 0 C6 9.9 6 19.8 6 30 C3.69 30 1.38 30 -1 30 C-1.025 25.888 -1.043 21.777 -1.055 17.665 C-1.06 16.265 -1.067 14.865 -1.075 13.466 C-1.088 11.458 -1.093 9.449 -1.098 7.441 C-1.103 6.232 -1.108 5.022 -1.114 3.776 C-1 1 -1 1 0 0 Z " fill="#000000" transform="translate(293,709)"/>
<path d="M0 0 C0.619 0.33 1.238 0.66 1.875 1 C1.215 2.98 0.555 4.96 -0.125 7 C-0.812 6.844 -1.499 6.688 -2.207 6.527 C-3.108 6.333 -4.009 6.138 -4.938 5.938 C-5.384 5.839 -5.384 5.839 -7.645 5.34 C-10.125 5 -10.125 5 -13.125 6 C-13.125 6.99 -13.125 7.98 -13.125 9 C-12.138 9.326 -11.15 9.652 -10.133 9.988 C-8.838 10.429 -7.544 10.871 -6.25 11.312 C-5.599 11.526 -4.948 11.739 -4.277 11.959 C-0.66 13.208 0.689 13.721 2.875 17 C3.423 21.225 3.348 23.274 1 26.875 C-3.315 29.809 -6.956 30.297 -12.125 30 C-15.254 29.266 -18.172 28.263 -21.125 27 C-20.75 24.562 -20.75 24.562 -20.125 22 C-19.465 21.67 -18.805 21.34 -18.125 21 C-17.444 21.309 -16.764 21.619 -16.062 21.938 C-12.049 23.389 -8.348 23.166 -4.125 23 C-4.125 22.01 -4.125 21.02 -4.125 20 C-5.101 19.685 -6.077 19.371 -7.082 19.047 C-8.367 18.615 -9.653 18.183 -10.938 17.75 C-11.58 17.545 -12.223 17.34 -12.885 17.129 C-16.784 15.795 -19.144 14.683 -21.125 11 C-21.625 8.062 -21.625 8.062 -21.125 5 C-15.56 -1.768 -8.161 -2.611 0 0 Z " fill="#000000" transform="translate(339.125,710)"/>
<path d="M0 0 C18.225 0 18.225 0 23.637 4.301 C25.938 7.169 25.585 10.001 25.492 13.551 C24.935 16.325 24.319 17.254 22.188 19.062 C18.31 21.419 15.759 22.127 11.312 22.062 C10.908 22.058 10.908 22.058 8.863 22.035 C8.248 22.024 7.634 22.012 7 22 C7 24.64 7 27.28 7 30 C4.69 30 2.38 30 0 30 C0 20.1 0 10.2 0 0 Z M7 6 C7 9.3 7 12.6 7 16 C15.371 16.485 15.371 16.485 18.188 14.312 C19 12 19 12 18.25 9.312 C17 7 17 7 16 6 C12.997 5.858 10.008 5.958 7 6 Z " fill="#000000" transform="translate(348,709)"/>
<path d="M0 0 C3.7 2.09 5.476 3.799 7.672 7.504 C9.088 12.638 9.358 16.287 7.484 21.316 C4.585 25.816 0.897 28.823 -4.328 30.129 C-10.641 30.236 -15.223 28.805 -20.328 25.129 C-23.074 21.65 -24.158 18.553 -24.328 14.129 C-23.447 9.298 -22.114 5.386 -18.328 2.129 C-12.801 -1.556 -6.293 -2.355 0 0 Z M-14.328 7.129 C-16.561 10.478 -17.025 12.259 -16.742 16.195 C-16.047 19.443 -14.845 20.999 -12.328 23.129 C-8.953 24.191 -8.953 24.191 -5.328 24.129 C0.14 21.192 0.14 21.192 1.672 18.129 C2.092 10.568 2.092 10.568 -0.328 7.129 C-5.261 3.84 -9.54 3.937 -14.328 7.129 Z " fill="#000000" transform="translate(401.328125,709.87109375)"/>
<path d="M0 0 C17.286 0 17.286 0 22 3 C24.72 5.72 25.821 8.152 26 12 C23.667 18.667 23.667 18.667 21 20 C22.335 23.594 23.96 26.755 26 30 C20.751 30.525 20.751 30.525 18 30 C14 25.4 14 25.4 14 22 C11.69 22 9.38 22 7 22 C7 24.64 7 27.28 7 30 C4.69 30 2.38 30 0 30 C0 20.1 0 10.2 0 0 Z M7 6 C7 9.3 7 12.6 7 16 C8.423 16.062 9.846 16.124 11.312 16.188 C12.113 16.222 12.914 16.257 13.738 16.293 C16 16 16 16 17.805 14.648 C19 13 19 13 18.812 10.438 C18 8 18 8 16 6 C12.982 5.728 10.036 5.913 7 6 Z " fill="#000000" transform="translate(416,709)"/>
<path d="M0 0 C1.075 -0.001 2.15 -0.003 3.258 -0.004 C4.39 -0 5.521 0.004 6.688 0.008 C7.819 0.004 8.951 0 10.117 -0.004 C11.192 -0.003 12.267 -0.001 13.375 0 C13.872 0.001 13.872 0.001 16.387 0.003 C18.688 0.133 18.688 0.133 19.688 1.133 C19.728 2.799 19.73 4.467 19.688 6.133 C16.717 6.133 13.748 6.133 10.688 6.133 C10.688 14.053 10.688 21.973 10.688 30.133 C8.377 30.133 6.067 30.133 3.688 30.133 C3.688 22.213 3.688 14.293 3.688 6.133 C0.387 6.133 -2.913 6.133 -6.312 6.133 C-6.312 -0.561 -6.007 0.007 0 0 Z " fill="#000000" transform="translate(450.3125,708.8671875)"/>
<path d="M0 0 C0.619 0.495 1.238 0.99 1.875 1.5 C1.215 2.82 0.555 4.14 -0.125 5.5 C-0.728 5.416 -1.332 5.332 -1.953 5.246 C-2.353 5.195 -2.353 5.195 -4.375 4.938 C-5.164 4.833 -5.953 4.729 -6.766 4.621 C-9.13 4.5 -10.876 4.804 -13.125 5.5 C-12.795 6.82 -12.465 8.14 -12.125 9.5 C-11.377 9.67 -10.63 9.84 -9.859 10.016 C-8.875 10.258 -7.89 10.5 -6.875 10.75 C-6.388 10.866 -6.388 10.866 -3.922 11.453 C-0.748 12.641 0.779 13.856 2.875 16.5 C3.435 20.423 3.557 22.529 1.25 25.812 C-4.083 29.602 -8.47 29.65 -14.758 28.984 C-17.169 28.491 -18.988 27.701 -21.125 26.5 C-20.75 24.062 -20.75 24.062 -20.125 21.5 C-19.465 21.17 -18.805 20.84 -18.125 20.5 C-17.444 20.809 -16.764 21.119 -16.062 21.438 C-12.049 22.889 -8.348 22.666 -4.125 22.5 C-4.227 20.625 -4.227 20.625 -5.125 18.5 C-7.961 17.375 -7.961 17.375 -11.5 16.5 C-17.672 14.967 -17.672 14.967 -20.008 12.559 C-21.61 9.607 -21.665 7.81 -21.125 4.5 C-15.709 -2.086 -7.765 -3.727 0 0 Z " fill="#000000" transform="translate(494.125,710.5)"/>
<path d="M0 0 C0.516 0.062 0.516 0.062 3.125 0.375 C5.478 3.715 7.128 7.371 8.824 11.078 C9.068 11.609 9.068 11.609 10.299 14.297 C10.798 15.395 11.298 16.493 11.812 17.625 C12.324 18.739 12.835 19.852 13.361 21 C17.125 29.241 17.125 29.241 17.125 30.375 C14.485 30.375 11.845 30.375 9.125 30.375 C8.465 28.725 7.805 27.075 7.125 25.375 C2.505 25.375 -2.115 25.375 -6.875 25.375 C-7.205 26.2 -7.205 26.2 -8.875 30.375 C-11.185 30.375 -13.495 30.375 -15.875 30.375 C-13.798 23.643 -11.178 17.278 -8.25 10.875 C-7.843 9.97 -7.435 9.065 -7.016 8.133 C-3.537 0.461 -3.537 0.461 0 0 Z M0.125 8.375 C-0.547 9.664 -1.212 10.956 -1.875 12.25 C-2.246 12.969 -2.617 13.689 -3 14.43 C-3.875 16.375 -3.875 16.375 -3.875 18.375 C-1.235 18.705 1.405 19.035 4.125 19.375 C3.574 15.426 2.736 12.026 1.125 8.375 C0.795 8.375 0.465 8.375 0.125 8.375 Z " fill="#000000" transform="translate(527.875,708.625)"/>
<path d="M0 0 C5 0 5 0 7.281 1.977 C8.013 2.851 8.746 3.725 9.5 4.625 C10.232 5.484 10.964 6.342 11.719 7.227 C12.472 8.142 13.224 9.057 14 10 C15.65 11.98 17.3 13.96 19 16 C19.33 10.72 19.66 5.44 20 0 C22.31 0 24.62 0 27 0 C27 9.9 27 19.8 27 30 C21 30 21 30 18.586 27.988 C17.856 27.105 17.127 26.222 16.375 25.312 C15.64 24.442 14.905 23.572 14.148 22.676 C13.439 21.793 12.73 20.91 12 20 C11.25 19.107 10.5 18.213 9.727 17.293 C8 15 8 15 8 13 C7.34 13 6.68 13 6 13 C6 18.61 6 24.22 6 30 C4.02 30 2.04 30 0 30 C0 20.1 0 10.2 0 0 Z " fill="#000000" transform="translate(549,709)"/>
<path d="M0 0 C1.134 0.021 2.269 0.041 3.438 0.062 C6.946 6.848 10.235 13.698 13.312 20.688 C13.623 21.386 13.933 22.085 14.252 22.805 C16.438 27.818 16.438 27.818 16.438 30.062 C13.125 30.375 13.125 30.375 9.438 30.062 C9.015 29.248 8.592 28.433 8.156 27.594 C6.438 25.062 6.438 25.062 3.082 24.355 C1.817 24.321 0.553 24.286 -0.75 24.25 C-2.022 24.202 -3.295 24.155 -4.605 24.105 C-5.581 24.091 -6.557 24.077 -7.562 24.062 C-7.707 24.867 -7.851 25.671 -8 26.5 C-8.562 29.062 -8.562 29.062 -9.562 30.062 C-11.895 30.103 -14.23 30.105 -16.562 30.062 C-15.29 26.108 -13.87 22.291 -12.215 18.48 C-11.775 17.467 -11.334 16.453 -10.881 15.408 C-10.653 14.887 -10.653 14.887 -9.5 12.25 C-9.04 11.188 -8.581 10.127 -8.107 9.033 C-4.204 0.074 -4.204 0.074 0 0 Z M-0.562 8.062 C-1.883 11.362 -3.202 14.663 -4.562 18.062 C-1.606 19.541 1.18 19.123 4.438 19.062 C3.987 17.602 3.527 16.144 3.062 14.688 C2.807 13.875 2.552 13.063 2.289 12.227 C1.438 10.062 1.438 10.062 -0.562 8.062 Z " fill="#000000" transform="translate(596.5625,708.9375)"/>
<path d="M0 0 C2.31 0 4.62 0 7 0 C7 7.92 7 15.84 7 24 C8.145 23.99 8.145 23.99 13.938 23.938 C16.292 23.916 18.647 23.927 21 24 C22 25 22 25 22 30 C14.74 30 7.48 30 0 30 C0 20.1 0 10.2 0 0 Z " fill="#000000" transform="translate(617,709)"/>
<path d="M0 0 C5.085 -0.175 5.085 -0.175 8 1 C10.772 4.3 14 8.549 14 13 C14.66 13 15.32 13 16 13 C16.227 12.34 16.454 11.68 16.688 11 C18.407 7.069 20.111 3.218 23 0 C26.312 -0.5 26.312 -0.5 29 0 C28.325 4.185 26.108 7.588 24 11.188 C23.631 11.829 23.263 12.47 22.883 13.131 C20.155 17.845 20.155 17.845 19 19 C18.766 20.849 18.587 22.705 18.438 24.562 C18.354 25.574 18.27 26.586 18.184 27.629 C18.153 28.02 18.153 28.02 18 30 C15.69 30 13.38 30 11 30 C11.044 29.319 11.088 28.639 11.133 27.938 C11.108 18.547 7.266 12.768 2.152 5.273 C0 2 0 2 0 0 Z " fill="#000000" transform="translate(637,709)"/>
<path d="M0 0 C0.521 0.003 0.521 0.003 3.158 0.016 C4.283 0.019 5.407 0.022 6.566 0.026 C7.75 0.034 8.934 0.042 10.154 0.051 C11.342 0.056 12.53 0.06 13.754 0.065 C16.7 0.077 19.646 0.093 22.592 0.114 C22.592 2.094 22.592 4.074 22.592 6.114 C19.622 6.114 16.652 6.114 13.592 6.114 C13.592 14.034 13.592 21.954 13.592 30.114 C11.282 30.114 8.972 30.114 6.592 30.114 C6.592 22.194 6.592 14.274 6.592 6.114 C3.622 6.114 0.652 6.114 -2.408 6.114 C-2.791 4.457 -3.122 2.789 -3.408 1.114 C-2.408 0.114 -2.408 0.114 0 0 Z " fill="#000000" transform="translate(670.408447265625,708.886474609375)"/>
<path d="M0 0 C1.98 0 3.96 0 6 0 C7 1 7 1 7.114 3.776 C7.108 4.985 7.103 6.195 7.098 7.441 C7.094 8.747 7.091 10.052 7.088 11.396 C7.08 12.785 7.071 14.174 7.062 15.562 C7.057 16.955 7.053 18.348 7.049 19.74 C7.037 23.16 7.021 26.58 7 30 C4.69 30 2.38 30 0 30 C0 20.1 0 10.2 0 0 Z " fill="#000000" transform="translate(698,709)"/>
<path d="M0 0 C2.438 1.688 2.438 1.688 3.438 4.688 C2.447 5.678 1.457 6.668 0.438 7.688 C-0.222 7.357 -0.883 7.028 -1.562 6.688 C-6.304 5.107 -10.771 5.09 -15.562 6.688 C-16.799 10.397 -17.114 13.832 -16.562 17.688 C-14.54 20.722 -13.14 21.499 -9.688 22.625 C-5.887 22.701 -3.793 21.611 -0.562 19.688 C0.758 20.678 2.077 21.668 3.438 22.688 C2.938 24.5 2.938 24.5 1.438 26.688 C-3.576 29.238 -7.713 30.324 -13.312 29.469 C-17.534 28.003 -20.689 25.045 -23.562 21.688 C-25.012 17.34 -25.079 13.232 -24.562 8.688 C-19.514 -1.229 -10.193 -3.755 0 0 Z " fill="#000000" transform="translate(735.5625,710.3125)"/>
<path d="M0 0 C3.188 1.5 3.188 1.5 5 3 C4.34 4.32 3.68 5.64 3 7 C2.397 6.916 1.793 6.832 1.172 6.746 C0.772 6.695 0.772 6.695 -1.25 6.438 C-2.039 6.333 -2.828 6.229 -3.641 6.121 C-6.005 6 -7.751 6.304 -10 7 C-9.67 8.32 -9.34 9.64 -9 11 C-8.252 11.17 -7.505 11.34 -6.734 11.516 C-5.75 11.758 -4.765 12 -3.75 12.25 C-2.775 12.482 -1.801 12.714 -0.797 12.953 C2.377 14.141 3.904 15.356 6 18 C6.56 21.923 6.682 24.029 4.375 27.312 C-0.915 31.071 -5.396 31.266 -11.652 30.492 C-14.543 29.886 -16.661 28.793 -19 27 C-18.34 25.35 -17.68 23.7 -17 22 C-16.216 22.33 -15.433 22.66 -14.625 23 C-10.006 24.274 -5.758 24.169 -1 24 C-1.102 22.125 -1.102 22.125 -2 20 C-4.836 18.875 -4.836 18.875 -8.375 18 C-14.547 16.467 -14.547 16.467 -16.883 14.059 C-18.485 11.107 -18.54 9.31 -18 6 C-12.555 -0.448 -8.113 -0.701 0 0 Z " fill="#000000" transform="translate(761,709)"/>
</svg>
