<svg xmlns="http://www.w3.org/2000/svg" viewBox="140 210 600 390" width="600" height="390" fill="none">
  <path d="M0 0 C1.705 12.328 3.361 24.663 5 37 C5.088 37.665 5.177 38.329 5.268 39.014 C6.5 48.29 7.723 57.567 8.933 66.846 C9.456 70.859 9.982 74.873 10.513 78.886 C11.023 82.73 11.525 86.576 12.022 90.423 C12.209 91.862 12.399 93.302 12.591 94.74 C12.857 96.728 13.112 98.718 13.367 100.707 C13.44 101.269 13.44 101.269 13.812 104.11 C13.983 106.74 13.831 108.526 13 111 C9.082 108.814 5.166 106.626 1.25 104.438 C0.158 103.828 -0.934 103.219 -2.059 102.592 C-8.645 98.909 -15.175 95.152 -21.646 91.27 C-24 90 -24 90 -26 90 C-26.411 90.753 -26.823 91.506 -27.247 92.281 C-34.944 106.349 -42.713 120.356 -50.848 134.178 C-54.993 141.234 -59.021 148.349 -63 155.5 C-67.553 163.682 -72.192 171.803 -76.938 179.875 C-82.003 188.494 -86.918 197.187 -91.75 205.938 C-96.099 213.811 -100.491 221.644 -105.09 229.374 C-109.072 236.082 -112.945 242.851 -116.812 249.625 C-117.153 250.221 -117.493 250.816 -117.843 251.43 C-124.598 263.267 -131.309 275.127 -138 287 C-141.863 285.712 -142.119 284.481 -144.012 280.945 C-144.596 279.869 -145.181 278.794 -145.783 277.685 C-146.093 277.106 -146.402 276.527 -146.721 275.931 C-148.379 272.833 -150.069 269.753 -151.758 266.672 C-151.932 266.353 -151.932 266.353 -152.816 264.739 C-156.414 258.193 -160.223 251.782 -164.062 245.375 C-169.826 235.736 -175.403 226.013 -180.856 216.196 C-185.337 208.143 -189.95 200.175 -194.612 192.225 C-199.106 184.555 -203.535 176.848 -207.938 169.125 C-213.101 160.069 -218.284 151.025 -223.5 142 C-229.03 132.43 -234.526 122.842 -240.003 113.242 C-244.955 104.563 -249.937 95.901 -254.938 87.25 C-259.129 79.993 -263.315 72.734 -267.438 65.438 C-267.809 64.782 -268.181 64.127 -268.564 63.452 C-271 59.12 -271 59.12 -271 58 C-254.971 57.696 -238.943 57.467 -222.912 57.326 C-215.468 57.259 -208.025 57.168 -200.582 57.019 C-194.092 56.889 -187.604 56.806 -181.113 56.777 C-177.677 56.76 -174.245 56.72 -170.81 56.626 C-149.884 56.111 -149.884 56.111 -145.098 59.246 C-141.804 62.656 -140.457 66.519 -139 71 C-137.938 72.936 -136.842 74.854 -135.691 76.738 C-134.086 79.587 -132.49 82.441 -130.896 85.297 C-128.353 89.845 -125.799 94.374 -123.094 98.828 C-122.878 99.19 -122.878 99.19 -121.787 101.018 C-120.995 102.34 -120.189 103.652 -119.364 104.952 C-117.62 107.899 -116.852 109.403 -117.691 112.79 C-119.103 116.254 -120.765 119.395 -122.625 122.641 C-122.973 123.249 -123.32 123.857 -123.678 124.484 C-124.409 125.759 -125.142 127.033 -125.877 128.306 C-127.003 130.255 -128.119 132.209 -129.234 134.164 C-134.715 143.715 -134.715 143.715 -137 146 C-143.588 135.709 -149.503 125.056 -155.438 114.379 C-159.246 107.56 -163.125 100.781 -167 94 C-181.19 94 -195.38 94 -210 94 C-207.979 97.444 -205.957 100.889 -203.875 104.438 C-198.738 113.219 -193.7 122.049 -188.75 130.938 C-184.944 137.771 -181.118 144.586 -177.125 151.312 C-172.76 158.667 -168.493 166.075 -164.25 173.5 C-163.911 174.094 -163.571 174.687 -163.222 175.299 C-159.438 181.921 -155.678 188.557 -151.965 195.219 C-151.328 196.36 -150.692 197.502 -150.036 198.678 C-148.831 200.844 -147.628 203.012 -146.429 205.182 C-145.889 206.153 -145.349 207.124 -144.793 208.125 C-144.558 208.549 -144.558 208.549 -143.372 210.695 C-142.045 212.925 -140.597 214.958 -139 217 C-138.809 216.654 -138.809 216.654 -137.845 214.902 C-130.449 201.484 -122.968 188.133 -115.203 174.924 C-111.043 167.832 -106.997 160.684 -103 153.5 C-98.424 145.278 -93.764 137.114 -89 129 C-83.57 119.751 -78.289 110.428 -73.07 101.059 C-67.82 91.643 -62.437 82.309 -57 73 C-59.86 70.721 -62.693 69.065 -66 67.512 C-66.965 67.055 -67.93 66.599 -68.924 66.128 C-69.939 65.653 -70.954 65.177 -72 64.688 C-74.075 63.707 -76.149 62.725 -78.223 61.742 C-79.218 61.271 -80.213 60.801 -81.239 60.315 C-86.198 57.953 -91.106 55.494 -96 53 C-93.577 50.283 -90.999 48.764 -87.793 47.066 C-86.743 46.506 -85.693 45.946 -84.612 45.369 C-83.482 44.773 -82.352 44.177 -81.188 43.562 C-80.005 42.933 -78.822 42.303 -77.64 41.672 C-75.237 40.389 -72.832 39.108 -70.427 37.828 C-65.624 35.266 -60.84 32.671 -56.062 30.062 C-55.189 29.586 -54.315 29.109 -53.414 28.618 C-46.571 24.878 -39.757 21.088 -32.945 17.292 C-24.621 12.654 -16.293 8.028 -7.875 3.562 C-7.526 3.377 -7.526 3.377 -5.759 2.437 C-1.128 0 -1.128 0 0 0 Z " fill="#000000" transform="translate(577,272)" />
  <path d="M0 0 C36.96 0 73.92 0 112 0 C110.602 3.495 109.283 6.45 107.453 9.676 C106.945 10.573 106.438 11.471 105.914 12.396 C105.365 13.358 104.816 14.321 104.25 15.312 C103.674 16.327 103.099 17.341 102.506 18.385 C97.84 26.582 93.084 34.724 88.312 42.859 C84.036 50.17 79.871 57.538 75.75 64.938 C71.545 72.485 67.291 79.993 62.884 87.424 C53.374 103.47 44.166 119.694 34.927 135.897 C29.703 145.057 24.408 154.175 19.078 163.274 C15.157 169.982 11.309 176.728 7.5 183.5 C2.92 191.643 -1.728 199.743 -6.438 207.812 C-6.721 208.298 -6.721 208.298 -8.156 210.758 C-11.729 216.864 -15.347 222.942 -19 229 C-21.84 226.339 -23.869 223.827 -25.742 220.422 C-26.244 219.521 -26.745 218.62 -27.261 217.692 C-27.794 216.721 -28.326 215.75 -28.875 214.75 C-30.039 212.658 -31.204 210.567 -32.371 208.477 C-32.97 207.402 -33.57 206.327 -34.187 205.22 C-37.041 200.151 -39.989 195.139 -42.938 190.125 C-48.364 180.871 -53.651 171.547 -58.873 162.176 C-63.167 154.472 -67.518 146.804 -71.918 139.161 C-72.82 137.591 -73.709 136.014 -74.583 134.428 C-76 132 -76 132 -77.878 129.363 C-79.747 126.555 -81.094 124.253 -82 121 C-80.995 116.56 -78.764 113.189 -76.25 109.438 C-75.952 108.956 -75.952 108.956 -74.441 106.518 C-73.249 104.599 -72.036 102.693 -70.803 100.8 C-68.503 97.227 -66.373 93.565 -64.253 89.883 C-63 88 -63 88 -61 87 C-60.619 87.662 -60.238 88.324 -59.845 89.006 C-58.022 92.171 -56.199 95.336 -54.375 98.5 C-54.039 99.084 -53.703 99.667 -53.356 100.268 C-47.952 109.646 -42.496 118.992 -37.018 128.326 C-32.647 135.808 -28.445 143.374 -24.374 151.023 C-23.957 151.798 -23.539 152.573 -23.109 153.371 C-22.748 154.051 -22.387 154.731 -22.015 155.431 C-21 157 -21 157 -19 158 C-11.756 145.49 -4.525 132.975 2.562 120.375 C6.948 112.581 11.413 104.839 15.938 97.125 C21.317 87.951 26.548 78.703 31.719 69.411 C37.985 58.178 44.49 47.093 51 36 C35.49 35.67 19.98 35.34 4 35 C3.67 32.762 3.67 32.762 2 21.438 C1.791 20.039 1.582 18.641 1.367 17.201 C1.205 16.081 1.042 14.962 0.875 13.809 C0.707 12.672 0.54 11.536 0.367 10.365 C0 7 0 7 0 0 Z " fill="#000000" transform="translate(606,330)" />
</svg>